<svg width="370" height="225" viewBox="0 0 370 225" fill="none" xmlns="http://www.w3.org/2000/svg">
<path d="M0 15C0 6.71573 6.71573 0 15 0H355C363.284 0 370 6.71573 370 15V225H0V15Z" fill="#1D4ED8"/>
<path d="M15 1H355C362.732 1 369 7.26801 369 15V224H1V15C1 7.38882 7.07368 1.19654 14.6387 1.00488L15 1Z" stroke="#1D4ED8" stroke-opacity="0.2" stroke-width="2"/>
<rect x="50" y="35" width="270" height="154" rx="10" fill="white" fill-opacity="0.2"/>
<rect x="51" y="36" width="268" height="152" rx="9" stroke="#1D4ED8" stroke-opacity="0.2" stroke-width="2"/>
<rect x="70" y="48" width="59" height="126" rx="10" fill="#1C279E"/>
<rect x="71" y="49" width="57" height="124" rx="9" stroke="#1D4ED8" stroke-opacity="0.2" stroke-width="2"/>
<rect x="80" y="84" width="42" height="12" rx="6" fill="#BFDBFE"/>
<rect x="81" y="85" width="40" height="10" rx="5" stroke="#1D4ED8" stroke-opacity="0.2" stroke-width="2"/>
<rect x="80" y="106" width="42" height="12" rx="6" fill="#1D4ED8"/>
<rect x="81" y="107" width="40" height="10" rx="5" stroke="#1D4ED8" stroke-opacity="0.2" stroke-width="2"/>
<rect x="80" y="128" width="42" height="12" rx="6" fill="#47DDFF"/>
<rect x="81" y="129" width="40" height="10" rx="5" stroke="#1D4ED8" stroke-opacity="0.2" stroke-width="2"/>
<rect x="85" y="152" width="29" height="8" rx="4" fill="#1D4ED8"/>
<rect x="86" y="153" width="27" height="6" rx="3" stroke="#1D4ED8" stroke-opacity="0.2" stroke-width="2"/>
<g filter="url(#filter0_f_73_126)">
<rect x="141" y="48" width="105" height="80" rx="7" fill="#61A5FA"/>
<rect x="142" y="49" width="103" height="78" rx="6" stroke="#1D4ED8" stroke-opacity="0.2" stroke-width="2"/>
</g>
<g filter="url(#filter1_f_73_126)">
<rect x="254" y="48" width="45" height="36" rx="7" fill="#1D4ED8"/>
<rect x="255" y="49" width="43" height="34" rx="6" stroke="#1D4ED8" stroke-opacity="0.2" stroke-width="2"/>
</g>
<g filter="url(#filter2_f_73_126)">
<rect x="254" y="92" width="45" height="36" rx="7" fill="#1D4ED8"/>
<rect x="255" y="93" width="43" height="34" rx="6" stroke="#1D4ED8" stroke-opacity="0.2" stroke-width="2"/>
</g>
<g filter="url(#filter3_f_73_126)">
<rect x="141" y="138" width="158" height="9" rx="4.5" fill="#1D4ED8"/>
<rect x="142" y="139" width="156" height="7" rx="3.5" stroke="#1D4ED8" stroke-opacity="0.2" stroke-width="2"/>
</g>
<g filter="url(#filter4_f_73_126)">
<rect x="139" y="152" width="100" height="9" rx="4.5" fill="#47DDFF"/>
<rect x="140" y="153" width="98" height="7" rx="3.5" stroke="#1D4ED8" stroke-opacity="0.2" stroke-width="2"/>
</g>
<g filter="url(#filter5_f_73_126)">
<rect x="139" y="165" width="160" height="9" rx="4.5" fill="#47DDFF"/>
<rect x="140" y="166" width="158" height="7" rx="3.5" stroke="#1D4ED8" stroke-opacity="0.2" stroke-width="2"/>
</g>
<rect x="92" y="60" width="15" height="15" rx="7.5" fill="#1D4ED8"/>
<rect x="149" y="89" width="7" height="22" fill="#3E6DF0"/>
<rect x="162" y="84" width="7" height="27" fill="#3E6DF0"/>
<rect x="174" y="72" width="7" height="39" fill="#3E6DF0"/>
<rect x="185" y="80" width="7" height="30" fill="#3E6DF0"/>
<circle cx="227" cy="68" r="8" fill="#1D4ED8"/>
<circle cx="227" cy="92" r="8" fill="#1D4ED8"/>
<path d="M235.707 114.707C236.098 114.317 236.098 113.683 235.707 113.293L229.343 106.929C228.953 106.538 228.319 106.538 227.929 106.929C227.538 107.319 227.538 107.953 227.929 108.343L233.586 114L227.929 119.657C227.538 120.047 227.538 120.681 227.929 121.071C228.319 121.462 228.953 121.462 229.343 121.071L235.707 114.707ZM204 114V115H235V114V113H204V114Z" fill="#1D4ED8"/>
<defs>
<filter id="filter0_f_73_126" x="139" y="46" width="109" height="84" filterUnits="userSpaceOnUse" color-interpolation-filters="sRGB">
<feFlood flood-opacity="0" result="BackgroundImageFix"/>
<feBlend mode="normal" in="SourceGraphic" in2="BackgroundImageFix" result="shape"/>
<feGaussianBlur stdDeviation="1" result="effect1_foregroundBlur_73_126"/>
</filter>
<filter id="filter1_f_73_126" x="252" y="46" width="49" height="40" filterUnits="userSpaceOnUse" color-interpolation-filters="sRGB">
<feFlood flood-opacity="0" result="BackgroundImageFix"/>
<feBlend mode="normal" in="SourceGraphic" in2="BackgroundImageFix" result="shape"/>
<feGaussianBlur stdDeviation="1" result="effect1_foregroundBlur_73_126"/>
</filter>
<filter id="filter2_f_73_126" x="252" y="90" width="49" height="40" filterUnits="userSpaceOnUse" color-interpolation-filters="sRGB">
<feFlood flood-opacity="0" result="BackgroundImageFix"/>
<feBlend mode="normal" in="SourceGraphic" in2="BackgroundImageFix" result="shape"/>
<feGaussianBlur stdDeviation="1" result="effect1_foregroundBlur_73_126"/>
</filter>
<filter id="filter3_f_73_126" x="139" y="136" width="162" height="13" filterUnits="userSpaceOnUse" color-interpolation-filters="sRGB">
<feFlood flood-opacity="0" result="BackgroundImageFix"/>
<feBlend mode="normal" in="SourceGraphic" in2="BackgroundImageFix" result="shape"/>
<feGaussianBlur stdDeviation="1" result="effect1_foregroundBlur_73_126"/>
</filter>
<filter id="filter4_f_73_126" x="137" y="150" width="104" height="13" filterUnits="userSpaceOnUse" color-interpolation-filters="sRGB">
<feFlood flood-opacity="0" result="BackgroundImageFix"/>
<feBlend mode="normal" in="SourceGraphic" in2="BackgroundImageFix" result="shape"/>
<feGaussianBlur stdDeviation="1" result="effect1_foregroundBlur_73_126"/>
</filter>
<filter id="filter5_f_73_126" x="137" y="163" width="164" height="13" filterUnits="userSpaceOnUse" color-interpolation-filters="sRGB">
<feFlood flood-opacity="0" result="BackgroundImageFix"/>
<feBlend mode="normal" in="SourceGraphic" in2="BackgroundImageFix" result="shape"/>
<feGaussianBlur stdDeviation="1" result="effect1_foregroundBlur_73_126"/>
</filter>
</defs>
</svg>
